<svg height="512pt" viewBox="-26 0 512 512.002" width="512pt" xmlns="http://www.w3.org/2000/svg"><path d="m55.773438 90h388.554687l5.671875-80h-440l5.675781 80zm0 0" fill="#5fa4ff" fill-rule="evenodd"/><path d="m15.675781 90 24.324219 343 190 69 190-69 24.328125-342.996094c-142.886719-.003906-285.769531-.003906-428.652344-.003906zm0 0" fill="#9bc5ff" fill-rule="evenodd"/><path d="m457.320312 3.183594c-1.894531-2.03125-4.542968-3.183594-7.320312-3.183594h-320c-5.519531 0-10 4.476562-10 10s4.480469 10 10 10h309.265625l-4.253906 60.003906h-410.023438l-4.253906-60.003906h29.269531c5.519532 0 10-4.476562 10-10s-4.480468-10-10-10h-40.003906c-2.773438 0-5.425781 1.152344-7.316406 3.183594-1.890625 2.03125-2.855469 4.757812-2.6562502 7.523437l30.0000002 423.003907c.277344 3.9375 2.847656 7.34375 6.5625 8.691406l190 69c1.101562.398437 2.257812.601562 3.410156.601562 1.15625 0 2.3125-.203125 3.414062-.601562l190-69c3.714844-1.347656 6.285157-4.753906 6.5625-8.691406l30-423.003907c.195313-2.769531-.765624-5.492187-2.65625-7.523437zm-46.835937 422.632812-180.484375 65.542969-180.484375-65.542969-23.105469-325.8125h20.050782l.753906 10.65625c.375 5.269532 4.761718 9.292969 9.964844 9.292969.238281 0 .476562-.007813.71875-.023437 5.507812-.390626 9.65625-5.175782 9.265624-10.683594l-.65625-9.242188h326.984376l-.65625 9.242188c-.390626 5.507812 3.757812 10.292968 9.269531 10.683594.238281.015624.480469.023437.71875.023437 5.199219 0 9.589843-4.023437 9.964843-9.292969l.753907-10.65625h20.050781zm0 0"/><path d="m104.925781 403.382812-18.800781-6.824218c-5.195312-1.886719-10.929688.792968-12.8125 5.984375-1.886719 5.191406.792969 10.929687 5.984375 12.8125l18.800781 6.828125c1.128906.410156 2.28125.605468 3.414063.605468 4.085937 0 7.921875-2.527343 9.398437-6.589843 1.886719-5.195313-.792968-10.929688-5.984375-12.816407zm0 0"/><path d="m74.875 359.328125c5.511719-.390625 9.660156-5.171875 9.269531-10.683594l-1.417969-19.949219c-.390624-5.511718-5.207031-9.660156-10.679687-9.269531-5.511719.390625-9.660156 5.175781-9.269531 10.683594l1.414062 19.949219c.375 5.269531 4.765625 9.292968 9.964844 9.292968.238281 0 .480469-.007812.71875-.023437zm0 0"/><path d="m180.121094 430.691406-18.800782-6.828125c-5.195312-1.882812-10.929687.796875-12.8125 5.988281-1.886718 5.191407.796876 10.925782 5.984376 12.8125l18.800781 6.824219c1.125.410157 2.277343.605469 3.410156.605469 4.089844 0 7.925781-2.523438 9.402344-6.589844 1.886719-5.191406-.792969-10.925781-5.984375-12.8125zm0 0"/><path d="m69.21875 279.527344c5.507812-.390625 9.65625-5.171875 9.265625-10.683594l-1.414063-19.949219c-.390624-5.511719-5.210937-9.664062-10.683593-9.269531-5.507813.390625-9.65625 5.175781-9.265625 10.683594l1.414062 19.949218c.371094 5.269532 4.761719 9.292969 9.964844 9.292969.234375.003907.476562-.007812.71875-.023437zm0 0"/><path d="m63.554688 199.726562c5.511718-.390624 9.660156-5.171874 9.269531-10.683593l-1.417969-19.949219c-.390625-5.507812-5.1875-9.65625-10.679688-9.265625-5.511718.390625-9.660156 5.171875-9.269531 10.679687l1.417969 19.953126c.371094 5.269531 4.761719 9.292968 9.964844 9.292968.234375 0 .476562-.007812.714844-.027344zm0 0"/><path d="m373.875 396.558594-18.796875 6.824218c-5.191406 1.886719-7.871094 7.625-5.988281 12.8125 1.476562 4.066407 5.3125 6.589844 9.402344 6.589844 1.132812 0 2.285156-.191406 3.410156-.601562l18.800781-6.828125c5.191406-1.886719 7.871094-7.621094 5.984375-12.8125-1.882812-5.191407-7.621094-7.875-12.8125-5.984375zm0 0"/><path d="m399.277344 159.828125c-5.5-.390625-10.292969 3.757813-10.683594 9.265625l-1.417969 19.953125c-.390625 5.507813 3.757813 10.289063 9.269531 10.683594.238282.015625.480469.023437.71875.023437 5.199219 0 9.589844-4.023437 9.964844-9.292968l1.414063-19.949219c.390625-5.511719-3.757813-10.292969-9.265625-10.683594zm0 0"/><path d="m393.613281 239.628906c-5.476562-.394531-10.289062 3.757813-10.679687 9.265625l-1.417969 19.949219c-.390625 5.511719 3.761719 10.292969 9.269531 10.683594.242188.019531.480469.027344.71875.027344 5.199219 0 9.589844-4.027344 9.964844-9.292969l1.414062-19.953125c.390626-5.507813-3.757812-10.289063-9.269531-10.679688zm0 0"/><path d="m387.957031 319.425781c-5.480469-.386719-10.292969 3.757813-10.683593 9.269531l-1.414063 19.949219c-.394531 5.511719 3.757813 10.292969 9.265625 10.683594.242188.015625.480469.023437.71875.023437 5.199219 0 9.589844-4.023437 9.964844-9.292968l1.414062-19.949219c.390625-5.507813-3.757812-10.289063-9.265625-10.683594zm0 0"/><path d="m298.679688 423.863281-18.800782 6.828125c-5.1875 1.882813-7.871094 7.621094-5.984375 12.8125 1.476563 4.0625 5.3125 6.589844 9.398438 6.589844 1.132812 0 2.289062-.195312 3.414062-.605469l18.796875-6.824219c5.191406-1.886718 7.875-7.625 5.988282-12.816406-1.886719-5.1875-7.621094-7.871094-12.8125-5.984375zm0 0"/><path d="m230 449.4375c-5.523438 0-10 4.476562-10 10v.007812c0 5.523438 4.476562 9.996094 10 9.996094s10-4.480468 10-10.003906-4.476562-10-10-10zm0 0"/><path d="m90.003906 20c5.523438 0 10-4.476562 10-10s-4.476562-10-10-10h-.003906c-5.523438 0-9.996094 4.476562-9.996094 10s4.476563 10 10 10zm0 0"/></svg>